<svg height="512" viewBox="0 0 256 256" width="512" xmlns="http://www.w3.org/2000/svg"><g fill="#846f75"><path d="m209 44.5h-162a2.5 2.5 0 0 0 -2.5 2.5v162a2.5 2.5 0 0 0 2.5 2.5h162a2.5 2.5 0 0 0 2.5-2.5v-162a2.5 2.5 0 0 0 -2.5-2.5zm-2.5 162h-157v-157h157z"/><path d="m87 182.414a7.508 7.508 0 0 0 7.5-7.5v-79.607a2.5 2.5 0 0 0 -5 0v79.607a2.5 2.5 0 0 1 -5 0v-79.607a2.5 2.5 0 0 0 -5 0v79.607a7.508 7.508 0 0 0 7.5 7.5z"/><path d="m128 182.414a7.508 7.508 0 0 0 7.5-7.5v-16.291a2.5 2.5 0 0 0 -5 0v16.291a2.5 2.5 0 0 1 -5 0v-16.291a2.5 2.5 0 0 0 -5 0v16.291a7.508 7.508 0 0 0 7.5 7.5z"/><path d="m123 137.843a2.5 2.5 0 0 0 2.5-2.5v-54.257a2.5 2.5 0 0 1 5 0v54.257a2.5 2.5 0 0 0 5 0v-54.257a7.5 7.5 0 0 0 -15 0v54.257a2.5 2.5 0 0 0 2.5 2.5z"/><path d="m164 112.511a2.5 2.5 0 0 0 2.5-2.5v-28.925a2.5 2.5 0 0 1 5 0v28.925a2.5 2.5 0 0 0 5 0v-28.925a7.5 7.5 0 0 0 -15 0v28.925a2.5 2.5 0 0 0 2.5 2.5z"/><path d="m169 182.414a7.508 7.508 0 0 0 7.5-7.5v-41.625a2.5 2.5 0 0 0 -5 0v41.625a2.5 2.5 0 0 1 -5 0v-41.625a2.5 2.5 0 0 0 -5 0v41.625a7.508 7.508 0 0 0 7.5 7.5z"/></g><path d="m87 98.833a15.167 15.167 0 1 1 15.167-15.166 15.184 15.184 0 0 1 -15.167 15.166zm0-25.333a10.167 10.167 0 1 0 10.167 10.167 10.178 10.178 0 0 0 -10.167-10.167z" fill="#ed9abc"/><path d="m128 162.15a15.167 15.167 0 1 1 15.167-15.167 15.184 15.184 0 0 1 -15.167 15.167zm0-25.334a10.167 10.167 0 1 0 10.167 10.167 10.179 10.179 0 0 0 -10.167-10.167z" fill="#ed9abc"/><path d="m169 136.816a15.167 15.167 0 1 1 15.166-15.166 15.183 15.183 0 0 1 -15.166 15.166zm0-25.333a10.167 10.167 0 1 0 10.166 10.167 10.179 10.179 0 0 0 -10.166-10.167z" fill="#ed9abc"/></svg>